<svg xmlns="http://www.w3.org/2000/svg" viewBox="0 0 135 21.28"><defs><style>.cls-1{fill:#231f20;}</style></defs><title>Asset 1</title><g id="Layer_2" data-name="Layer 2"><g id="Layer_2-2" data-name="Layer 2"><path class="cls-1" d="M4,10.64c0,3.69,3.22,6.45,6.67,6.67a6.7,6.7,0,0,0,4.2-1.47L17.28,19a9.72,9.72,0,0,1-6.64,2.28A10.64,10.64,0,1,1,10.64,0a10,10,0,0,1,6.64,2.28L14.84,5.45A6.68,6.68,0,0,0,4,10.64Z"/><path class="cls-1" d="M18.86,1.61h3.78V21.06H18.86Z"/><path class="cls-1" d="M26.64,2.22a2,2,0,0,1,1.89,1.89A1.91,1.91,0,0,1,26.64,6a1.89,1.89,0,0,1-1.92-1.92A1.91,1.91,0,0,1,26.64,2.22ZM24.72,7.14H28.5V21.06H24.72Z"/><path class="cls-1" d="M30.42,7.17h3.45V7.7a5,5,0,0,1,2.75-.75c3.92,0,6.2,2.22,6.2,6.14v8H39V13.14a2.42,2.42,0,0,0-2.42-2.42A2.37,2.37,0,0,0,34.19,13v8.08H30.42Z"/><path class="cls-1" d="M46.61,2.22A2,2,0,0,1,48.5,4.11,1.91,1.91,0,0,1,46.61,6a1.89,1.89,0,0,1-1.92-1.92A1.91,1.91,0,0,1,46.61,2.22ZM44.69,7.14h3.78V21.06H44.69Z"/><path class="cls-1" d="M54.22,10.64c0,3.69,3.22,6.45,6.67,6.67a6.7,6.7,0,0,0,4.19-1.47L67.53,19a9.72,9.72,0,0,1-6.64,2.28A10.64,10.64,0,1,1,60.89,0a10,10,0,0,1,6.64,2.28L65.08,5.45a6.68,6.68,0,0,0-10.86,5.2Z"/><path class="cls-1" d="M79,16.73l1.53,2.69a8.68,8.68,0,0,1-5.64,1.86,7,7,0,0,1-7.2-7.2,7,7,0,0,1,7-7.11C78.81,7,81,9.81,81,13.81a14.64,14.64,0,0,1-.08,1.58H71.86c-.06,0-.08.06-.08.14a3.45,3.45,0,0,0,3.45,2.31A7.73,7.73,0,0,0,79,16.73Zm-6.45-5.58a2.71,2.71,0,0,0-.81,1.39c0,.06,0,.08.11.08h5.25c.08,0,.11,0,.11-.06A2.36,2.36,0,0,0,76.58,11a2.66,2.66,0,0,0-2.06-.75A2.94,2.94,0,0,0,72.53,11.14Z"/><path class="cls-1" d="M82.36,7.17H85.8V7.7a5,5,0,0,1,2.75-.75c3.92,0,6.2,2.22,6.2,6.14v8H91V13.14a2.42,2.42,0,0,0-2.42-2.42A2.37,2.37,0,0,0,86.14,13v8.08H82.36Z"/><path class="cls-1" d="M98.47,3.17h3.78v4h3.2v3.39h-3.2v10.5H98.47V10.56H95.19V7.17h3.28Z"/><path class="cls-1" d="M106.67,7.17h3.53v.61a4.38,4.38,0,0,1,2.7-.83h1.94v3.81h-2A2.34,2.34,0,0,0,110.44,13v8.08h-3.78Z"/><path class="cls-1" d="M118.19,2.22a2,2,0,0,1,1.89,1.89A1.92,1.92,0,0,1,118.19,6a1.89,1.89,0,0,1-1.92-1.92A1.92,1.92,0,0,1,118.19,2.22Zm-1.92,4.92h3.78V21.06h-3.78Z"/><path class="cls-1" d="M134.53,10.09l-2.81,2.08a4,4,0,0,0-3-1.44,3.38,3.38,0,1,0,0,6.75,3.49,3.49,0,0,0,3-1.81L135,17.34a7.16,7.16,0,1,1-6.36-10.39A7.35,7.35,0,0,1,134.53,10.09Z"/></g></g></svg>