<svg xmlns="http://www.w3.org/2000/svg" viewBox="0 0 140 148.08"><defs><style>.cls-1{fill:#f25f86;}.cls-2{fill:#ffa1c3;}.cls-3{fill:#ffdeeb;}</style></defs><title>Asset 2</title><g id="Layer_2" data-name="Layer 2"><g id="Layer_2-2" data-name="Layer 2"><polygon class="cls-1" points="135.89 56.54 91.53 56.54 91.53 12.19 44.35 12.19 44.35 56.54 0 56.54 0 103.72 44.35 103.72 44.35 148.08 91.53 148.08 91.53 103.72 135.89 103.72 135.89 56.54"/><rect class="cls-2" x="83.46" y="42.41" width="14.14" height="14.14"/><path class="cls-3" d="M95.57,44.43v10.1H85.48V44.43h10.1m2-2H83.46V56.54H97.59V42.41Z"/><rect class="cls-2" x="83.46" y="14.14" width="14.14" height="14.14"/><path class="cls-3" d="M95.57,16.16v10.1H85.48V16.16h10.1m2-2H83.46V28.27H97.59V14.14Z"/><rect class="cls-2" x="83.46" y="56.54" width="14.14" height="14.14"/><path class="cls-3" d="M95.57,58.56v10.1H85.48V58.56h10.1m2-2H83.46V70.68H97.59V56.54Z"/><rect class="cls-2" x="97.59" y="70.68" width="14.14" height="14.14"/><path class="cls-3" d="M109.71,72.7V82.8H99.61V72.7h10.1m2-2H97.59V84.82h14.14V70.68Z"/><rect class="cls-2" x="111.73" y="84.82" width="14.14" height="14.14"/><path class="cls-3" d="M123.84,86.84v10.1h-10.1V86.84h10.1m2-2H111.73V99h14.14V84.82Z"/><rect class="cls-2" x="97.59" y="56.54" width="14.14" height="14.14"/><path class="cls-3" d="M109.71,58.56v10.1H99.61V58.56h10.1m2-2H97.59V70.68h14.14V56.54Z"/><rect class="cls-2" x="97.59" y="42.41" width="14.14" height="14.14"/><path class="cls-3" d="M109.71,44.43v10.1H99.61V44.43h10.1m2-2H97.59V56.54h14.14V42.41Z"/><rect class="cls-2" x="121.83" y="42.41" width="14.14" height="14.14"/><path class="cls-3" d="M133.94,44.43v10.1h-10.1V44.43h10.1m2-2H121.83V56.54H136V42.41Z"/><rect class="cls-2" x="97.59" y="28.27" width="14.14" height="14.14"/><path class="cls-3" d="M109.71,30.29v10.1H99.61V30.29h10.1m2-2H97.59V42.41h14.14V28.27Z"/><rect class="cls-2" x="111.73" y="14.14" width="14.14" height="14.14"/><path class="cls-3" d="M123.84,16.16v10.1h-10.1V16.16h10.1m2-2H111.73V28.27h14.14V14.14Z"/><rect class="cls-2" x="125.86" width="14.14" height="14.14"/><path class="cls-3" d="M138,2v10.1h-10.1V2H138m2-2H125.86V14.14H140V0Z"/><rect class="cls-2" x="69.32" y="42.41" width="14.14" height="14.14"/><path class="cls-3" d="M81.44,44.43v10.1H71.34V44.43h10.1m2-2H69.32V56.54H83.46V42.41Z"/></g></g></svg>